<?xml version="1.0" encoding="utf-8"?>
<svg version="1.1" id="BLDRS" xmlns="http://www.w3.org/2000/svg" xmlns:xlink="http://www.w3.org/1999/xlink" x="0px" y="0px"
	 viewBox="0 0 348 96" style="enable-background:new 0 0 348 96;" xml:space="preserve">
<style type="text/css">
	.st0{fill:#00ADEE; mix-blend-mode: multiply;}
	.st1{fill:#EB008B; mix-blend-mode: multiply;}
</style>
<g id="B">
	<path id="Fill-1" class="st0" d="M0,58V18h40c11,0,20,9,20,20s-9,20-20,20H0z"/>
	<path id="Fill-2" class="st1" d="M0,78V38h40c11,0,20,9,20,20s-9,20-20,20H0z"/>
</g>
<g id="L" transform="translate(108, 0)">
	<polygon id="Fill-3" class="st1" points="-40.5,78 -10.5,78 -10.5,18 -40.5,18"/>
	<polygon id="Fill-4" class="st0" points="-40.5,78 19.5,78 19.5,48 -40.5,48"/>
</g>
<g id="D" transform="translate(216, 0)">
	<path id="Fill-5" class="st1" d="M-51,18c16.6,0,30,13.4,30,30s-13.4,30-30,30s-30-13.4-30-30S-67.6,18-51,18"/>
	<polygon id="Fill-6" class="st0" points="-81,78 -51,78 -51,18 -81,18"/>
</g>
<g id="R" transform="translate(324, 0)">
	<path id="Fill-7" class="st1" d="M-121.5,58V18h40c11,0,20,9,20,20s-9,20-20,20H-121.5z"/>
	<polygon id="Fill-8" class="st0" points="-61.5,78 -121.5,78 -121.5,18"/>
</g>
<g id="S" transform="translate(432, 0)">
	<path id="Fill-9" class="st0" d="M-162,78V38h40c11,0,20,9,20,20s-9,20-20,20H-162z"/>
	<path id="Fill-10" class="st1" d="M-102,58V18h-40c-11,0-20,9-20,20s9,20,20,20H-102z"/>
</g>
</svg>
